<svg width="80" height="80" viewBox="0 0 80 80" fill="none" xmlns="http://www.w3.org/2000/svg">
<path d="M26.097 48.3344C19.8282 48.7375 14.1392 51.125 10.911 59.6313C10.5438 60.6016 9.66104 61.1906 8.63135 61.1906C6.89541 61.1906 1.52822 56.8672 -0.00146484 55.8234C9.76562e-05 68.6906 5.92666 80 20.0001 80C31.8532 80 40.0001 73.1609 40.0001 61.2203C40.0001 60.7344 39.8985 60.2703 39.8485 59.7937L26.097 48.3344ZM71.5454 0C69.1767 0 66.9563 1.04844 65.2626 2.57031C33.3235 31.1016 30.0001 31.7719 30.0001 40.1703C30.0001 42.3109 30.5079 44.3516 31.3642 46.2172L41.336 54.5266C42.4626 54.8078 43.6235 55 44.8345 55C54.5392 55 60.1642 47.8953 77.8282 14.9281C78.9814 12.6859 80.0001 10.2641 80.0001 7.74219C80.0001 3.225 75.9376 0 71.5454 0Z" fill="white"/>
</svg>
